<svg width="8" height="14" viewBox="0 0 8 14" fill="none" xmlns="http://www.w3.org/2000/svg">
<path d="M6.96595 2.14731C7.01858 2.09162 7.05972 2.02611 7.08703 1.95452C7.11434 1.88293 7.12728 1.80666 7.12511 1.73007C7.12295 1.65347 7.10571 1.57806 7.0744 1.50812C7.04309 1.43819 6.99831 1.37511 6.94262 1.32248C6.88693 1.26985 6.82141 1.22871 6.74982 1.2014C6.67823 1.17409 6.60196 1.16115 6.52537 1.16332C6.44878 1.16549 6.37336 1.18272 6.30343 1.21403C6.23349 1.24534 6.17041 1.29012 6.11778 1.34581L1.15945 6.59581C1.05705 6.70412 1 6.84752 1 6.99656C1 7.14561 1.05705 7.28901 1.15945 7.39732L6.11778 12.6479C6.17006 12.7048 6.23313 12.7508 6.30332 12.7831C6.37351 12.8154 6.44943 12.8335 6.52666 12.8362C6.60389 12.839 6.68089 12.8263 6.7532 12.7991C6.82551 12.7718 6.89168 12.7304 6.94787 12.6774C7.00405 12.6243 7.04914 12.5606 7.0805 12.49C7.11186 12.4194 7.12888 12.3432 7.13056 12.266C7.13225 12.1887 7.11856 12.1119 7.0903 12.04C7.06204 11.968 7.01977 11.9024 6.96595 11.847L2.38562 6.99656L6.96595 2.14731Z" fill="#183553" stroke="#183553" stroke-width="0.8"/>
</svg>
