<svg width="15" height="15" viewBox="0 0 15 15" fill="none" xmlns="http://www.w3.org/2000/svg">
<path d="M14.7811 6.97184L8.03114 0.221849C7.96141 0.151552 7.87846 0.0957566 7.78707 0.0576802C7.69567 0.0196037 7.59764 0 7.49864 0C7.39963 0 7.3016 0.0196037 7.2102 0.0576802C7.11881 0.0957566 7.03586 0.151552 6.96614 0.221849L0.21614 6.97184C0.112071 7.07731 0.0415743 7.21124 0.0135438 7.35673C-0.0144868 7.50223 0.00120517 7.65276 0.0586397 7.78934C0.114905 7.92631 0.210453 8.04355 0.333243 8.1263C0.456033 8.20905 0.60057 8.2536 0.748639 8.25434H1.49864V13.7293C1.51231 14.0802 1.6644 14.4113 1.92163 14.6502C2.17885 14.8892 2.52026 15.0165 2.87114 15.0043H4.87364C5.07255 15.0043 5.26331 14.9253 5.40397 14.7847C5.54462 14.644 5.62364 14.4533 5.62364 14.2543V10.5793C5.62364 10.3804 5.70265 10.1897 5.84331 10.049C5.98396 9.90836 6.17472 9.82934 6.37364 9.82934H8.62363C8.82255 9.82934 9.01331 9.90836 9.15396 10.049C9.29462 10.1897 9.37363 10.3804 9.37363 10.5793V14.2543C9.37363 14.4533 9.45265 14.644 9.5933 14.7847C9.73396 14.9253 9.92472 15.0043 10.1236 15.0043H12.1261C12.477 15.0165 12.8184 14.8892 13.0756 14.6502C13.3329 14.4113 13.485 14.0802 13.4986 13.7293V8.25434H14.2486C14.3967 8.2536 14.5412 8.20905 14.664 8.1263C14.7868 8.04355 14.8824 7.92631 14.9386 7.78934C14.9961 7.65276 15.0118 7.50223 14.9837 7.35673C14.9557 7.21124 14.8852 7.07731 14.7811 6.97184Z" fill="#183553"/>
</svg>
